<?xml version="1.0" standalone="no"?>
<!DOCTYPE svg PUBLIC "-//W3C//DTD SVG 1.0//EN" "http://www.w3.org/TR/2001/REC-SVG-20010904/DTD/svg10.dtd">
<svg xmlns="http://www.w3.org/2000/svg" xmlns:xlink="http://www.w3.org/1999/xlink" id="body_1" width="48" height="48">

<g transform="matrix(1.3333334 0 0 1.3333334 0 0)">
	<path  d="M0 0L163.5 0L163.5 163.5L0 163.5z" stroke="none"  fill="#FFFFFF" fill-rule="evenodd" />
	<g transform="matrix(1 0 0 1 0 0)">
		<g transform="matrix(0.15825689 0 0 0.15825689 0 0)">
			<path transform="matrix(1 0 0 1 0 0)" d="M0 0C 71.94 0 143.88 0 218 0C 218 71.94 218 143.88 48 48C 146.06 48 74.12 218 0 218C 0 146.06 0 74.12 0 0z" stroke="none"  fill="#FEFEFE" fill-rule="nonzero" />
			<path transform="matrix(1 0 0 1 83 112)" d="M0 0C 32.34 0 64.68 0 98 0C 98 10.510967 89.08112 19.819054 82.96484 28C 79.85166 32.1716 76.86102 36.424404 73.875 40.6875C 71.92052 43.461067 69.9614 46.231323 68 49C 67.579445 49.595387 67.15889 50.190773 66.725586 50.8042C 57.453835 63.85319 57.453835 63.85319 51 68C 50.01 68 49.02 68 48 68C 46.397816 66.07614 45.01533 64.195724 43.625 62.125C 42.72738 60.82886 41.8289 59.533318 40.929688 58.23828C 40.4537 57.54686 39.977715 56.85544 39.487305 56.143066C 36.95728 52.497536 34.352497 48.90648 31.75 45.3125C 31.206982 44.560734 30.663965 43.80897 30.104492 43.034424C 26.05739 37.438686 21.973969 31.870327 17.875 26.3125C 17.296371 25.5273 16.717745 24.7421 16.121582 23.933105C 13.315072 20.127495 10.500657 16.32815 7.671875 12.5390625C 7.156411 11.845144 6.6409473 11.151226 6.1098633 10.436279C 5.1434135 9.135338 4.1732216 7.8371654 3.1987305 6.5422363C 0 2.2255914 0 2.2255914 0 0z" stroke="none"  fill="#D41D1D" fill-rule="nonzero" />
			<path transform="matrix(1 0 0 1 131 40)" d="M0 0C 6.3361325 0.8694521 9.001737 4.2313075 13 9C 16.614288 13.780874 19.98035 18.739227 23.379395 23.673828C 26.06866 27.533924 28.852615 31.324427 31.625 35.125C 35.736355 40.794075 39.778484 46.501724 43.6875 52.3125C 44.097584 52.916588 44.507668 53.520676 44.930176 54.143066C 48.073105 58.868862 50 62.278004 50 68C 17.66 68 -14.68 68 -48 68C -46.623432 65.246864 -45.41208 63.020405 -43.671875 60.558594C -43.209183 59.902542 -42.74649 59.24649 -42.269775 58.570557C -41.76825 57.86665 -41.266724 57.16274 -40.75 56.4375C -40.22205 55.692986 -39.694096 54.94847 -39.150146 54.181396C -34.60394 47.79517 -29.96191 41.48138 -25.29956 35.179688C -16.710203 23.56751 -8.211056 11.883637 0 0z" stroke="none"  fill="#E16161" fill-rule="nonzero" />
			<path transform="matrix(1 0 0 1 79 117)" d="M0 0C 4.2882357 4.012338 7.616794 8.399789 11 13.1875C 12.156127 14.806078 13.312381 16.424564 14.46875 18.042969C 15.348536 19.27926 15.348536 19.27926 16.246094 20.540527C 18.979391 24.373384 21.740587 28.185926 24.5 32C 25.571648 33.485653 26.643263 34.97133 27.714844 36.45703C 29.98926 39.607224 32.274696 42.74909 34.566406 45.88672C 35.15164 46.69045 35.736874 47.49418 36.339844 48.322266C 37.452835 49.850418 38.568535 51.376606 39.6875 52.90039C 42.765903 57.13417 45.48904 61.40561 48 66C 42.484993 68.31729 38.25706 69.3772 32.19458 69.38818C 31.460173 69.39344 30.725763 69.3987 29.9691 69.40411C 27.569021 69.4172 25.169617 69.40862 22.769531 69.39844C 21.089003 69.40046 19.408476 69.40337 17.727951 69.407135C 14.218695 69.411545 10.709669 69.405174 7.2004395 69.39111C 2.707997 69.373985 -1.783909 69.383896 -6.276332 69.40183C -9.741359 69.41268 -13.206259 69.40922 -16.67129 69.40145C -18.327854 69.39945 -19.98443 69.401886 -21.640982 69.40889C -23.95522 69.41652 -26.26859 69.40487 -28.582764 69.38818C -29.897663 69.385796 -31.212563 69.38341 -32.567307 69.38095C -36.222504 68.9753 -38.12226 68.25477 -41 66C -42.0625 63.25 -42.0625 63.25 -42 60C -38.94339 53.871304 -34.81418 48.642303 -30.625 43.25C -23.46993 33.954983 -16.468344 24.559324 -9.544434 15.091309C -7.4696865 12.281905 -5.3501415 9.50718 -3.2226562 6.737549C -1.729742 4.6159296 -0.7726885 2.4726033 0 0z" stroke="none"  fill="#D41A1A" fill-rule="nonzero" />
			<path transform="matrix(1 0 0 1 49.509033 33.49829)" d="M0 0C 1.1083571 -0.00810448 1.1083571 -0.00810448 2.2391052 -0.01637268C 4.6737313 -0.02884523 7.107171 -0.01237506 9.541748 0.00561523C 11.2417965 0.00546016 12.941845 0.0039698 14.6418915 0.00120544C 18.20364 -0.00017806 21.764986 0.01236712 25.32666 0.03515625C 29.876087 0.06347597 34.42484 0.06082059 38.974316 0.04806614C 42.48581 0.04108447 45.99715 0.04892761 49.50863 0.06132317C 51.185036 0.06581812 52.861458 0.06619168 54.537865 0.06225777C 56.890167 0.05932269 59.241566 0.07596253 61.59375 0.09765625C 62.277138 0.0931546 62.96053 0.08865295 63.664627 0.08401489C 68.8792 0.16327146 72.750565 1.5079718 77.49097 3.501709C 74.70155 8.614544 71.601616 13.203251 68.05347 17.814209C 63.662434 23.593275 59.349583 29.418821 55.115967 35.31421C 49.857716 42.632782 44.532345 49.898956 39.159424 57.13379C 36.155895 61.19009 33.245613 65.27208 30.490967 69.50171C 28.446146 66.82522 26.544329 64.099144 24.709717 61.275146C 21.682608 56.71025 18.394659 52.414593 14.990967 48.12671C 8.1363535 39.404922 1.5011371 30.532236 -5.013916 21.5542C -5.992798 20.210394 -6.9814157 18.873615 -7.980713 17.544922C -11.462422 12.855361 -12.698767 10.288571 -12.509033 4.501709C -8.730477 0.41095793 -5.322312 -0.07463201 0 0z" stroke="none"  fill="#F1B6B6" fill-rule="nonzero" />
		</g>
	</g>
</g>
</svg>
